<svg width="390" height="844" viewBox="0 0 390 844" fill="none" xmlns="http://www.w3.org/2000/svg">
<path d="M838 261.506C825.403 330.561 746.728 502.938 516.885 631.567C547.602 443.858 653.817 536.549 625.174 454.719C601.117 385.987 395.696 788.078 284.448 719.769C272.497 695.084 281.262 631.016 411.927 572.22C575.258 498.725 391.337 411.375 155.656 719.769C10.6561 909.503 -252.507 837.051 -295 807.73C-238.021 813.405 -118.268 789.571 -95.09 648.832C-66.1176 472.908 35.2851 277.122 284.448 226.048C533.611 174.973 275.757 157.948 197.531 191.998C224.572 126.736 357.459 -10.0302 672.679 -35.0001C676.542 3.77887 635.594 87.5789 440.9 112.549C488.221 115.863 578.229 136.392 559.687 191.998C536.509 261.506 205.335 211.842 197.531 381.592C191.288 517.391 56.8282 670.419 -31.3507 694.231C51.7036 705.581 245.084 605.681 381.834 281.073C456.695 258.429 587.639 278.336 508.091 463.206C541.025 387.838 656.14 261.506 838 261.506Z" fill="#F6FAEB"/>
</svg>
