<svg width="390" height="810" viewBox="0 0 390 810" fill="none" xmlns="http://www.w3.org/2000/svg">
<path d="M-372 225.506C-359.403 294.561 -280.728 466.938 -50.8848 595.567C-81.602 407.858 -187.817 500.549 -159.174 418.719C-135.117 349.987 70.3038 752.078 181.552 683.769C193.503 659.084 184.738 595.016 54.0734 536.22C-109.258 462.725 74.6629 375.375 310.344 683.769C455.344 873.503 718.507 801.051 761 771.73C704.021 777.405 584.268 753.571 561.09 612.832C532.118 436.908 430.715 241.122 181.552 190.048C-67.6114 138.973 190.243 121.948 268.469 155.998C241.428 90.7362 108.541 -46.0302 -206.679 -71C-210.542 -32.2211 -169.594 51.579 25.1003 76.5487C-22.2213 79.8626 -112.229 100.392 -93.6865 155.998C-70.5086 225.506 260.665 175.842 268.469 345.592C274.712 481.391 409.172 634.419 497.351 658.231C414.296 669.581 220.916 569.681 84.1661 245.073C9.30525 222.429 -121.639 242.336 -42.0906 427.206C-75.0248 351.838 -190.14 225.506 -372 225.506Z" fill="#F6FAEB"/>
</svg>
